<svg xmlns="http://www.w3.org/2000/svg" viewBox="0 0 1400 820" role="img" aria-labelledby="title desc">
  <title id="title">CAM runtime flow visualisation</title>
  <desc id="desc">CAM runtime flow visualisation showing ecological circuitry, governance nodes, and a synthetic intelligence silhouette.</desc>
  <defs><radialGradient id="bg" cx="50%" cy="50%" r="70%"><stop offset="0%" stop-color="#1b2e28"/><stop offset="60%" stop-color="#11211d"/><stop offset="100%" stop-color="#091512"/></radialGradient></defs>
  <rect width="1400" height="820" fill="url(#bg)"/>
  <g stroke="#4f8f73" stroke-opacity="0.45" fill="none"><path d="M80 720 C 260 560, 420 700, 610 560 S 980 460, 1320 620" stroke-width="3"/><path d="M100 160 C 320 240, 430 120, 690 220 S 1050 300, 1300 220" stroke="#b67b45" stroke-width="2.5"/><path d="M160 420 C 360 280, 490 480, 740 380 S 1140 300, 1260 420" stroke-width="2"/></g>
  <g fill="#6aac90" fill-opacity="0.85"><circle cx="250" cy="220" r="16"/><circle cx="440" cy="150" r="12"/><circle cx="700" cy="120" r="14"/><circle cx="1010" cy="170" r="15"/><circle cx="1180" cy="240" r="13"/><circle cx="210" cy="610" r="13"/><circle cx="460" cy="660" r="15"/><circle cx="900" cy="640" r="14"/><circle cx="1180" cy="580" r="12"/></g>
  <g fill="#7cb39a" fill-opacity="0.3"><ellipse cx="700" cy="410" rx="170" ry="260"/><ellipse cx="700" cy="340" rx="72" ry="92"/></g>
  <g stroke="#c38f60" stroke-opacity="0.6" fill="none" stroke-width="2"><circle cx="700" cy="410" r="230"/><circle cx="700" cy="410" r="300" stroke-opacity="0.35"/></g>
</svg>
