<?xml version="1.0" encoding="UTF-8"?>
<svg xmlns="http://www.w3.org/2000/svg" width="64" height="64" viewBox="0 0 1254 1254" role="img" aria-labelledby="title desc">
<title id="title">CAM Initiative black triskelion</title>
<desc id="desc">Black triskelion mark on a white background.</desc>
<rect width="1254" height="1254" fill="#ffffff"/>
<path d="M550 208 L531 220 L527 221 L518 229 L516 229 L513 233 L511 233 L495 248 L494 251 L484 261 L471 280 L463 295 L451 328 L446 358 L446 386 L449 407 L459 438 L466 452 L480 472 L490 483 L504 495 L531 511 L551 518 L565 521 L603 522 L625 518 L640 513 L658 504 L675 492 L689 478 L701 461 L711 440 L718 411 L718 380 L714 361 L705 339 L692 321 L674 306 L654 297 L642 296 L641 294 L617 295 L607 297 L586 305 L575 313 L561 328 L552 345 L548 360 L549 386 L551 393 L559 408 L568 417 L580 424 L590 427 L605 427 L621 421 L629 414 L636 400 L636 388 L634 382 L630 377 L625 374 L621 374 L624 385 L622 391 L617 397 L610 400 L600 400 L593 397 L585 389 L581 378 L582 363 L590 348 L606 336 L616 333 L633 333 L649 339 L663 351 L668 358 L675 375 L677 386 L676 409 L671 426 L663 441 L654 453 L641 464 L623 474 L615 475 L614 477 L600 480 L572 479 L571 477 L555 473 L535 462 L516 444 L505 428 L497 410 L491 382 L491 362 L493 348 L501 322 L517 294 L542 267 L560 254 L583 243 L604 237 L617 235 L646 235 L664 238 L683 244 L701 253 L723 269 L740 287 L751 303 L759 319 L766 339 L771 368 L771 397 L768 419 L764 436 L755 461 L744 483 L730 505 L718 520 L697 541 L675 558 L647 573 L639 575 L634 578 L630 578 L616 583 L611 583 L605 586 L599 585 L597 587 L554 587 L553 585 L546 586 L545 584 L527 583 L523 580 L468 567 L443 564 L397 565 L368 570 L340 579 L310 594 L290 608 L267 630 L247 658 L234 686 L224 726 L222 761 L226 795 L234 823 L249 855 L263 876 L276 891 L300 912 L317 923 L337 933 L354 939 L377 944 L419 945 L433 943 L457 936 L478 926 L492 917 L517 894 L533 871 L542 851 L547 834 L550 814 L550 788 L546 763 L539 743 L532 729 L515 706 L496 689 L480 679 L464 672 L439 666 L429 667 L428 665 L419 665 L393 669 L367 680 L355 688 L336 708 L325 728 L319 751 L319 774 L322 788 L330 807 L339 820 L352 832 L369 841 L384 845 L405 845 L419 841 L427 837 L435 831 L444 820 L451 802 L451 783 L448 773 L443 765 L436 758 L429 754 L422 752 L412 752 L402 756 L397 761 L394 767 L394 774 L397 774 L400 770 L405 768 L409 768 L416 771 L423 781 L424 788 L422 796 L414 806 L407 810 L388 811 L376 806 L366 797 L360 787 L357 778 L357 757 L365 737 L384 718 L396 712 L412 708 L430 708 L450 713 L464 720 L477 730 L494 751 L502 769 L506 787 L506 811 L504 823 L499 838 L493 850 L478 871 L464 883 L462 883 L449 892 L437 897 L423 901 L413 902 L411 904 L376 902 L347 893 L323 879 L299 857 L280 829 L268 798 L263 766 L263 752 L266 728 L275 700 L285 681 L299 662 L313 648 L327 637 L357 621 L375 615 L404 610 L445 611 L468 615 L486 620 L525 637 L548 652 L574 676 L592 700 L604 723 L613 748 L621 784 L630 813 L647 849 L657 865 L676 889 L698 910 L714 922 L744 939 L776 951 L798 956 L829 959 L853 958 L880 953 L906 944 L926 934 L953 915 L970 899 L982 885 L1002 854 L1011 834 L1017 816 L1023 784 L1023 743 L1016 709 L1010 692 L1000 672 L981 646 L962 628 L936 611 L918 603 L902 598 L878 594 L841 595 L811 603 L785 616 L768 629 L753 644 L740 662 L728 687 L721 715 L720 748 L725 775 L737 803 L746 816 L758 829 L777 843 L800 853 L819 857 L845 857 L869 851 L883 844 L893 837 L906 824 L915 811 L923 792 L926 776 L926 759 L923 744 L915 726 L910 719 L898 707 L877 696 L867 694 L851 694 L838 697 L828 702 L821 707 L813 716 L805 734 L805 751 L808 760 L816 770 L822 774 L829 776 L839 775 L843 773 L848 767 L848 764 L843 766 L837 766 L833 764 L826 754 L827 742 L829 738 L837 730 L848 726 L861 727 L873 733 L880 740 L886 751 L888 758 L888 773 L882 790 L867 807 L857 813 L840 818 L822 818 L807 814 L791 805 L780 795 L772 784 L766 772 L761 752 L762 722 L768 702 L779 682 L795 664 L815 650 L834 642 L857 638 L884 640 L907 647 L921 654 L934 663 L948 676 L958 688 L971 710 L977 726 L981 743 L982 782 L977 807 L970 826 L962 842 L952 857 L934 877 L913 893 L894 903 L878 909 L861 913 L838 916 L823 915 L797 911 L777 905 L757 896 L736 883 L708 858 L685 827 L676 810 L666 783 L661 759 L659 737 L659 717 L662 691 L671 659 L689 623 L715 588 L741 561 L769 528 L786 501 L796 480 L805 454 L813 414 L814 361 L810 334 L798 297 L788 277 L776 259 L767 248 L742 225 L722 212 L708 205 L686 197 L658 191 L614 190 L613 192 L599 192 L586 195 L585 197 L578 197 L561 203 L560 205 L557 205 L553 208 Z M613 100 L564 104 L519 112 L460 129 L417 147 L376 169 L328 202 L298 227 L259 266 L230 301 L200 345 L172 397 L153 442 L141 479 L129 530 L122 581 L120 637 L124 691 L134 747 L142 778 L153 812 L171 855 L192 895 L222 941 L261 989 L299 1027 L338 1059 L386 1091 L423 1111 L467 1130 L511 1144 L559 1154 L609 1159 L648 1159 L684 1156 L729 1148 L784 1132 L821 1117 L862 1096 L915 1061 L951 1031 L996 985 L1028 945 L1061 894 L1084 849 L1099 812 L1112 771 L1123 723 L1130 672 L1132 617 L1128 563 L1120 515 L1107 466 L1088 415 L1064 366 L1033 316 L999 272 L969 240 L929 205 L887 175 L860 159 L828 143 L799 131 L763 119 L711 107 L663 101 Z M604 154 L654 154 L684 157 L718 163 L771 178 L814 196 L847 214 L879 235 L927 274 L963 311 L992 348 L1018 388 L1039 428 L1056 469 L1069 511 L1080 565 L1084 604 L1084 656 L1080 693 L1070 745 L1054 798 L1037 839 L1016 879 L991 917 L964 951 L938 979 L895 1017 L848 1049 L802 1073 L767 1087 L727 1099 L686 1107 L643 1111 L600 1110 L560 1105 L520 1096 L475 1081 L423 1057 L392 1039 L358 1015 L328 990 L292 954 L259 913 L231 870 L212 833 L198 799 L183 750 L172 692 L168 644 L168 611 L173 559 L182 514 L197 466 L217 419 L234 387 L267 337 L294 304 L321 276 L360 243 L394 220 L430 200 L474 181 L512 169 L565 158 Z" fill="#111111" fill-rule="evenodd"/>
</svg>